<mxfile host="Electron" agent="Mozilla/5.0 (Windows NT 10.0; Win64; x64) AppleWebKit/537.36 (KHTML, like Gecko) draw.io/27.0.5 Chrome/134.0.6998.205 Electron/35.3.0 Safari/537.36" version="27.0.5">
  <diagram name="Page-1" id="O_VndQ1_Mvq3e0-jEU53">
    <mxGraphModel dx="1464" dy="938" grid="1" gridSize="10" guides="1" tooltips="1" connect="1" arrows="1" fold="1" page="0" pageScale="1" pageWidth="850" pageHeight="1100" background="none" math="0" shadow="0">
      <root>
        <mxCell id="0" />
        <mxCell id="1" parent="0" />
        <mxCell id="RMtu8-0jDNB5YAwWADSS-1" value="High Level Architecture" style="text;html=1;align=center;verticalAlign=middle;resizable=0;points=[];autosize=1;strokeColor=none;fillColor=none;fontSize=26;fontStyle=1" parent="1" vertex="1">
          <mxGeometry x="870" y="20" width="290" height="40" as="geometry" />
        </mxCell>
        <mxCell id="RMtu8-0jDNB5YAwWADSS-3" value="" style="rounded=0;whiteSpace=wrap;html=1;fillColor=none;dashed=1;strokeColor=light-dark(#000000,#989898);" parent="1" vertex="1">
          <mxGeometry x="830" y="110" width="200" height="690" as="geometry" />
        </mxCell>
        <mxCell id="RMtu8-0jDNB5YAwWADSS-4" value="&lt;font style=&quot;font-size: 24px;&quot;&gt;Sources&lt;/font&gt;" style="rounded=0;whiteSpace=wrap;html=1;strokeColor=none;" parent="1" vertex="1">
          <mxGeometry x="880.75" y="90" width="100" height="30" as="geometry" />
        </mxCell>
        <mxCell id="RMtu8-0jDNB5YAwWADSS-5" style="edgeStyle=orthogonalEdgeStyle;rounded=0;orthogonalLoop=1;jettySize=auto;html=1;exitX=0.5;exitY=1;exitDx=0;exitDy=0;" parent="1" source="RMtu8-0jDNB5YAwWADSS-4" target="RMtu8-0jDNB5YAwWADSS-4" edge="1">
          <mxGeometry relative="1" as="geometry" />
        </mxCell>
        <mxCell id="RMtu8-0jDNB5YAwWADSS-6" value="" style="rounded=0;whiteSpace=wrap;html=1;fillColor=none;dashed=1;strokeColor=light-dark(#000000,#989898);fontSize=13;" parent="1" vertex="1">
          <mxGeometry x="1110" y="110" width="880" height="690" as="geometry" />
        </mxCell>
        <mxCell id="RMtu8-0jDNB5YAwWADSS-7" value="&lt;font style=&quot;font-size: 24px;&quot;&gt;Data warehouse&lt;/font&gt;" style="rounded=0;whiteSpace=wrap;html=1;strokeColor=none;fontStyle=1;labelBackgroundColor=none;labelBorderColor=none;fillColor=none;" parent="1" vertex="1">
          <mxGeometry x="1445" y="60" width="230" height="30" as="geometry" />
        </mxCell>
        <mxCell id="RMtu8-0jDNB5YAwWADSS-8" value="" style="rounded=0;whiteSpace=wrap;html=1;fillColor=none;dashed=1;strokeColor=light-dark(#000000,#989898);" parent="1" vertex="1">
          <mxGeometry x="2040" y="110" width="210" height="690" as="geometry" />
        </mxCell>
        <mxCell id="RMtu8-0jDNB5YAwWADSS-9" value="&lt;font style=&quot;font-size: 24px;&quot;&gt;Consume&lt;/font&gt;" style="rounded=0;whiteSpace=wrap;html=1;strokeColor=none;" parent="1" vertex="1">
          <mxGeometry x="2090" y="100" width="100" height="30" as="geometry" />
        </mxCell>
        <mxCell id="RMtu8-0jDNB5YAwWADSS-10" value="Bronze Layer" style="rounded=0;whiteSpace=wrap;html=1;fillColor=light-dark(#CD7F32,#CD9332);fontColor=#000000;strokeColor=#BD7000;fontSize=20;gradientColor=none;fontStyle=1" parent="1" vertex="1">
          <mxGeometry x="1150" y="120" width="220" height="40" as="geometry" />
        </mxCell>
        <mxCell id="RMtu8-0jDNB5YAwWADSS-11" value="" style="rounded=0;whiteSpace=wrap;html=1;fillColor=none;fontColor=#000000;strokeColor=#BD7000;fontSize=20;" parent="1" vertex="1">
          <mxGeometry x="1140" y="170" width="240" height="610" as="geometry" />
        </mxCell>
        <mxCell id="RMtu8-0jDNB5YAwWADSS-12" value="Silver Layer" style="rounded=0;whiteSpace=wrap;html=1;fillColor=light-dark(#C0C0C0,#C0C0C0);fontColor=#000000;strokeColor=#314354;fontSize=20;fontStyle=1" parent="1" vertex="1">
          <mxGeometry x="1455" y="120" width="215" height="40" as="geometry" />
        </mxCell>
        <mxCell id="RMtu8-0jDNB5YAwWADSS-13" value="" style="rounded=0;whiteSpace=wrap;html=1;fillColor=none;fontColor=#000000;strokeColor=#BD7000;fontSize=20;" parent="1" vertex="1">
          <mxGeometry x="1440" y="170" width="240" height="610" as="geometry" />
        </mxCell>
        <mxCell id="RMtu8-0jDNB5YAwWADSS-14" value="Gold Layer" style="rounded=0;whiteSpace=wrap;html=1;fillColor=light-dark(#FFD700,#FFD700);strokeColor=#d79b00;fontSize=20;gradientColor=none;labelBorderColor=none;fontColor=#000000;fontStyle=1" parent="1" vertex="1">
          <mxGeometry x="1735" y="120" width="230" height="40" as="geometry" />
        </mxCell>
        <mxCell id="RMtu8-0jDNB5YAwWADSS-15" value="" style="rounded=0;whiteSpace=wrap;html=1;fillColor=none;fontColor=#000000;strokeColor=#BD7000;fontSize=20;" parent="1" vertex="1">
          <mxGeometry x="1730" y="170" width="240" height="610" as="geometry" />
        </mxCell>
        <mxCell id="RMtu8-0jDNB5YAwWADSS-16" value="CRM" style="image;aspect=fixed;html=1;points=[];align=center;fontSize=12;image=img/lib/azure2/general/Folder_Blank.svg;" parent="1" vertex="1">
          <mxGeometry x="917" y="260" width="44.5" height="36.12" as="geometry" />
        </mxCell>
        <mxCell id="RMtu8-0jDNB5YAwWADSS-18" value="" style="image;aspect=fixed;html=1;points=[];align=center;fontSize=12;image=img/lib/azure2/general/File.svg;" parent="1" vertex="1">
          <mxGeometry x="937.15" y="270" width="24.35" height="30" as="geometry" />
        </mxCell>
        <mxCell id="RMtu8-0jDNB5YAwWADSS-22" value="ERP" style="image;aspect=fixed;html=1;points=[];align=center;fontSize=12;image=img/lib/azure2/general/Folder_Blank.svg;" parent="1" vertex="1">
          <mxGeometry x="918.5" y="360" width="44.5" height="36.12" as="geometry" />
        </mxCell>
        <mxCell id="RMtu8-0jDNB5YAwWADSS-23" value="" style="image;aspect=fixed;html=1;points=[];align=center;fontSize=12;image=img/lib/azure2/general/File.svg;" parent="1" vertex="1">
          <mxGeometry x="938.65" y="370" width="24.35" height="30" as="geometry" />
        </mxCell>
        <mxCell id="RMtu8-0jDNB5YAwWADSS-24" value="&lt;div&gt;&lt;font style=&quot;font-size: 16px;&quot;&gt;&lt;b&gt;object type:&lt;/b&gt; CSV Files&lt;/font&gt;&lt;/div&gt;&lt;font style=&quot;font-size: 16px;&quot;&gt;I&lt;b&gt;nterface:&lt;/b&gt; Files in Folder&lt;/font&gt;" style="rounded=0;whiteSpace=wrap;html=1;fillColor=none;strokeColor=none;align=left;" parent="1" vertex="1">
          <mxGeometry x="850" y="450" width="170" height="120" as="geometry" />
        </mxCell>
        <mxCell id="RMtu8-0jDNB5YAwWADSS-25" value="" style="html=1;verticalLabelPosition=bottom;align=center;labelBackgroundColor=#ffffff;verticalAlign=middle;strokeWidth=2;strokeColor=#BD7000;shadow=0;dashed=0;shape=mxgraph.ios7.icons.data;rounded=0;fontFamily=Helvetica;fontSize=20;fontColor=#000000;fontStyle=1;fillColor=light-dark(#CD7F32,#CD9332);gradientColor=none;" parent="1" vertex="1">
          <mxGeometry x="1222.13" y="260" width="57.87" height="70" as="geometry" />
        </mxCell>
        <mxCell id="RMtu8-0jDNB5YAwWADSS-26" value="" style="html=1;verticalLabelPosition=bottom;align=center;labelBackgroundColor=#ffffff;verticalAlign=middle;strokeWidth=2;strokeColor=#314354;shadow=0;dashed=0;shape=mxgraph.ios7.icons.data;rounded=0;fontFamily=Helvetica;fontSize=20;fontColor=#000000;fontStyle=1;fillColor=light-dark(#C0C0C0,#C0C0C0);gradientColor=none;" parent="1" vertex="1">
          <mxGeometry x="1531.44" y="255" width="57.12" height="75" as="geometry" />
        </mxCell>
        <mxCell id="RMtu8-0jDNB5YAwWADSS-27" value="" style="html=1;verticalLabelPosition=bottom;align=center;labelBackgroundColor=#ffffff;verticalAlign=middle;strokeWidth=2;strokeColor=#d79b00;shadow=0;dashed=0;shape=mxgraph.ios7.icons.data;rounded=0;fontFamily=Helvetica;fontSize=20;fontColor=#000000;fontStyle=1;fillColor=light-dark(#FFD700,#FFD700);gradientColor=none;labelBorderColor=none;" parent="1" vertex="1">
          <mxGeometry x="1830" y="260" width="60" height="75" as="geometry" />
        </mxCell>
        <mxCell id="RMtu8-0jDNB5YAwWADSS-28" value="" style="shape=singleArrow;whiteSpace=wrap;html=1;fillColor=#b1ddf0;strokeColor=#10739e;" parent="1" vertex="1">
          <mxGeometry x="1000.75" y="363.06" width="79.25" height="46.94" as="geometry" />
        </mxCell>
        <mxCell id="RMtu8-0jDNB5YAwWADSS-32" value="&lt;font style=&quot;font-size: 13px;&quot;&gt;Raw Data&lt;/font&gt;" style="text;html=1;align=center;verticalAlign=middle;whiteSpace=wrap;rounded=0;" parent="1" vertex="1">
          <mxGeometry x="1222.13" y="360" width="60" height="30" as="geometry" />
        </mxCell>
        <mxCell id="RMtu8-0jDNB5YAwWADSS-33" value="&lt;font style=&quot;font-size: 13px;&quot;&gt;Cleaned, Standardized Data&lt;/font&gt;" style="text;html=1;align=center;verticalAlign=middle;whiteSpace=wrap;rounded=0;" parent="1" vertex="1">
          <mxGeometry x="1500" y="340" width="110" height="50" as="geometry" />
        </mxCell>
        <mxCell id="RMtu8-0jDNB5YAwWADSS-34" value="&lt;font style=&quot;font-size: 13px;&quot;&gt;Business Ready Data&lt;/font&gt;" style="text;html=1;align=center;verticalAlign=middle;whiteSpace=wrap;rounded=0;" parent="1" vertex="1">
          <mxGeometry x="1805" y="350" width="110" height="30" as="geometry" />
        </mxCell>
        <mxCell id="RMtu8-0jDNB5YAwWADSS-36" value="" style="endArrow=none;html=1;rounded=0;" parent="1" edge="1">
          <mxGeometry width="50" height="50" relative="1" as="geometry">
            <mxPoint x="880.75" y="430" as="sourcePoint" />
            <mxPoint x="1000.75" y="430" as="targetPoint" />
          </mxGeometry>
        </mxCell>
        <mxCell id="RMtu8-0jDNB5YAwWADSS-37" value="" style="endArrow=none;html=1;rounded=0;" parent="1" edge="1">
          <mxGeometry width="50" height="50" relative="1" as="geometry">
            <mxPoint x="1192.13" y="406.73" as="sourcePoint" />
            <mxPoint x="1312.13" y="406.73" as="targetPoint" />
          </mxGeometry>
        </mxCell>
        <mxCell id="RMtu8-0jDNB5YAwWADSS-40" value="&lt;font style=&quot;font-size: 17px;&quot;&gt;&lt;span style=&quot;background-color: transparent; color: light-dark(rgb(0, 0, 0), rgb(255, 255, 255));&quot;&gt;&lt;b&gt;object type:&lt;/b&gt; Tables&lt;/span&gt;&lt;/font&gt;&lt;div&gt;&lt;font style=&quot;font-size: 17px;&quot;&gt;&lt;span style=&quot;background-color: transparent; color: light-dark(rgb(0, 0, 0), rgb(255, 255, 255));&quot;&gt;&lt;br&gt;&lt;/span&gt;&lt;/font&gt;&lt;/div&gt;&lt;div&gt;&lt;font style=&quot;font-size: 17px;&quot;&gt;&lt;b&gt;&lt;span style=&quot;background-color: transparent; color: light-dark(rgb(0, 0, 0), rgb(255, 255, 255));&quot;&gt;Load:&lt;/span&gt;&lt;span style=&quot;background-color: transparent; color: light-dark(rgb(0, 0, 0), rgb(255, 255, 255));&quot;&gt;&amp;nbsp;&lt;/span&gt;&lt;/b&gt;&lt;/font&gt;&lt;/div&gt;&lt;div&gt;&lt;ul&gt;&lt;li&gt;&lt;font style=&quot;font-size: 17px;&quot;&gt;&lt;span style=&quot;background-color: transparent; color: light-dark(rgb(0, 0, 0), rgb(255, 255, 255));&quot;&gt;Batch Processing&lt;/span&gt;&lt;/font&gt;&lt;/li&gt;&lt;li&gt;&lt;font style=&quot;font-size: 17px;&quot;&gt;&lt;span style=&quot;background-color: transparent; color: light-dark(rgb(0, 0, 0), rgb(255, 255, 255));&quot;&gt;Full Load(trunc &amp;amp; insert)&lt;/span&gt;&lt;/font&gt;&lt;/li&gt;&lt;/ul&gt;&lt;div&gt;&lt;span style=&quot;font-size: 17px;&quot;&gt;&lt;b&gt;No Transformations&lt;/b&gt;&lt;/span&gt;&lt;/div&gt;&lt;/div&gt;&lt;div&gt;&lt;span style=&quot;font-size: 17px;&quot;&gt;&lt;br&gt;&lt;/span&gt;&lt;/div&gt;&lt;div&gt;&lt;span style=&quot;font-size: 17px;&quot;&gt;&lt;b&gt;Data Model:&lt;/b&gt; None(as-is)&lt;/span&gt;&lt;/div&gt;" style="rounded=0;whiteSpace=wrap;html=1;fillColor=none;strokeColor=none;align=left;" parent="1" vertex="1">
          <mxGeometry x="1160" y="420" width="200" height="270" as="geometry" />
        </mxCell>
        <mxCell id="RMtu8-0jDNB5YAwWADSS-44" value="" style="image;aspect=fixed;html=1;points=[];align=center;fontSize=12;image=img/lib/azure2/general/Code.svg;" parent="1" vertex="1">
          <mxGeometry x="1218" y="180" width="64" height="52" as="geometry" />
        </mxCell>
        <mxCell id="RMtu8-0jDNB5YAwWADSS-45" value="" style="image;aspect=fixed;html=1;points=[];align=center;fontSize=12;image=img/lib/azure2/general/Code.svg;" parent="1" vertex="1">
          <mxGeometry x="1533" y="180" width="64" height="52" as="geometry" />
        </mxCell>
        <mxCell id="RMtu8-0jDNB5YAwWADSS-49" value="" style="endArrow=none;html=1;rounded=0;" parent="1" edge="1">
          <mxGeometry width="50" height="50" relative="1" as="geometry">
            <mxPoint x="1505" y="400" as="sourcePoint" />
            <mxPoint x="1625" y="400" as="targetPoint" />
          </mxGeometry>
        </mxCell>
        <mxCell id="RMtu8-0jDNB5YAwWADSS-50" value="" style="endArrow=none;html=1;rounded=0;" parent="1" edge="1">
          <mxGeometry width="50" height="50" relative="1" as="geometry">
            <mxPoint x="1800" y="396.12" as="sourcePoint" />
            <mxPoint x="1920" y="396.12" as="targetPoint" />
          </mxGeometry>
        </mxCell>
        <mxCell id="RMtu8-0jDNB5YAwWADSS-51" value="&lt;div&gt;&lt;font style=&quot;font-size: 17px;&quot;&gt;&lt;b style=&quot;&quot;&gt;object type:&lt;/b&gt; Tables&lt;/font&gt;&lt;/div&gt;&lt;div&gt;&lt;font style=&quot;font-size: 17px;&quot;&gt;&lt;br&gt;&lt;/font&gt;&lt;/div&gt;&lt;font style=&quot;font-size: 17px;&quot;&gt;&lt;div style=&quot;&quot;&gt;&lt;b style=&quot;background-color: transparent; color: light-dark(rgb(0, 0, 0), rgb(255, 255, 255));&quot;&gt;Load:&lt;/b&gt;&lt;span style=&quot;background-color: transparent; color: light-dark(rgb(0, 0, 0), rgb(255, 255, 255));&quot;&gt;&amp;nbsp;&lt;/span&gt;&lt;/div&gt;&lt;div style=&quot;&quot;&gt;&lt;ul&gt;&lt;li&gt;&lt;span style=&quot;background-color: transparent; color: light-dark(rgb(0, 0, 0), rgb(255, 255, 255));&quot;&gt;Batch Processing&lt;/span&gt;&lt;/li&gt;&lt;li&gt;&lt;span style=&quot;background-color: transparent; color: light-dark(rgb(0, 0, 0), rgb(255, 255, 255));&quot;&gt;Full Load&lt;/span&gt;&lt;/li&gt;&lt;li&gt;&lt;span style=&quot;background-color: transparent; color: light-dark(rgb(0, 0, 0), rgb(255, 255, 255));&quot;&gt;Truncate &amp;amp; Insert&lt;/span&gt;&lt;/li&gt;&lt;/ul&gt;&lt;div&gt;&lt;b&gt;Transformations:&lt;/b&gt;&lt;/div&gt;&lt;div&gt;&lt;ul&gt;&lt;li&gt;Data Cleansing&lt;/li&gt;&lt;li&gt;Data Standardization&lt;/li&gt;&lt;li&gt;Data Normalization&lt;/li&gt;&lt;li&gt;Derived Columns&lt;/li&gt;&lt;li&gt;Data Enrichment&lt;/li&gt;&lt;/ul&gt;&lt;div&gt;&lt;b&gt;Data Model: &lt;/b&gt;None(as-is)&lt;/div&gt;&lt;/div&gt;&lt;/div&gt;&lt;/font&gt;" style="rounded=0;whiteSpace=wrap;html=1;fillColor=none;strokeColor=none;align=left;" parent="1" vertex="1">
          <mxGeometry x="1460" y="410" width="200" height="360" as="geometry" />
        </mxCell>
        <mxCell id="RMtu8-0jDNB5YAwWADSS-52" value="&lt;div&gt;&lt;font style=&quot;font-size: 17px;&quot;&gt;&lt;b style=&quot;&quot;&gt;object type:&lt;/b&gt;&amp;nbsp;Views&lt;/font&gt;&lt;/div&gt;&lt;div&gt;&lt;font style=&quot;font-size: 17px;&quot;&gt;&lt;br&gt;&lt;/font&gt;&lt;/div&gt;&lt;div&gt;&lt;font style=&quot;font-size: 17px;&quot;&gt;No Load&lt;/font&gt;&lt;/div&gt;&lt;div&gt;&lt;font style=&quot;font-size: 17px;&quot;&gt;&lt;br&gt;&lt;/font&gt;&lt;/div&gt;&lt;div&gt;&lt;font style=&quot;font-size: 17px;&quot;&gt;Transformations:&lt;/font&gt;&lt;/div&gt;&lt;div&gt;&lt;ul&gt;&lt;li&gt;&lt;font style=&quot;font-size: 17px;&quot;&gt;Data Integrations&lt;/font&gt;&lt;/li&gt;&lt;li&gt;&lt;font style=&quot;font-size: 17px;&quot;&gt;Aggregations&lt;/font&gt;&lt;/li&gt;&lt;li&gt;&lt;font style=&quot;font-size: 17px;&quot;&gt;Business Logics&lt;/font&gt;&lt;/li&gt;&lt;/ul&gt;&lt;div&gt;&lt;span style=&quot;font-size: 17px;&quot;&gt;&lt;b&gt;Data Model:&amp;nbsp;&lt;/b&gt;&lt;/span&gt;&lt;/div&gt;&lt;/div&gt;&lt;div&gt;&lt;ul&gt;&lt;li&gt;&lt;span style=&quot;font-size: 17px;&quot;&gt;Star Schema&lt;/span&gt;&lt;/li&gt;&lt;li&gt;&lt;span style=&quot;font-size: 17px;&quot;&gt;Flat Table&lt;/span&gt;&lt;/li&gt;&lt;li&gt;&lt;span style=&quot;font-size: 17px;&quot;&gt;Aggregated Table&lt;/span&gt;&lt;/li&gt;&lt;/ul&gt;&lt;/div&gt;" style="rounded=0;whiteSpace=wrap;html=1;fillColor=none;strokeColor=none;align=left;" parent="1" vertex="1">
          <mxGeometry x="1750" y="420" width="210" height="350" as="geometry" />
        </mxCell>
        <mxCell id="RMtu8-0jDNB5YAwWADSS-57" value="" style="shape=singleArrow;whiteSpace=wrap;html=1;fillColor=#b1ddf0;strokeColor=#10739e;" parent="1" vertex="1">
          <mxGeometry x="1350.75" y="303.06" width="79.25" height="46.94" as="geometry" />
        </mxCell>
        <mxCell id="RMtu8-0jDNB5YAwWADSS-58" value="" style="shape=singleArrow;whiteSpace=wrap;html=1;fillColor=#b1ddf0;strokeColor=#10739e;" parent="1" vertex="1">
          <mxGeometry x="1670.75" y="300" width="79.25" height="46.94" as="geometry" />
        </mxCell>
        <mxCell id="RMtu8-0jDNB5YAwWADSS-59" value="" style="shape=singleArrow;whiteSpace=wrap;html=1;fillColor=#b1ddf0;strokeColor=#10739e;" parent="1" vertex="1">
          <mxGeometry x="1990" y="296.12" width="79.25" height="46.94" as="geometry" />
        </mxCell>
        <mxCell id="glMtyX_r7esRI9YPVUXw-6" value="&lt;font style=&quot;font-size: 20px;&quot;&gt;BI Reporting&lt;/font&gt;" style="image;aspect=fixed;html=1;points=[];align=center;fontSize=12;image=img/lib/azure2/power_platform/PowerBI.svg;" parent="1" vertex="1">
          <mxGeometry x="2114.5" y="210" width="51" height="68" as="geometry" />
        </mxCell>
        <mxCell id="glMtyX_r7esRI9YPVUXw-8" value="" style="sketch=0;points=[[0,0,0],[0.25,0,0],[0.5,0,0],[0.75,0,0],[1,0,0],[0,1,0],[0.25,1,0],[0.5,1,0],[0.75,1,0],[1,1,0],[0,0.25,0],[0,0.5,0],[0,0.75,0],[1,0.25,0],[1,0.5,0],[1,0.75,0]];outlineConnect=0;fontColor=#232F3E;fillColor=#01A88D;strokeColor=#ffffff;dashed=0;verticalLabelPosition=bottom;verticalAlign=top;align=center;html=1;fontSize=12;fontStyle=0;aspect=fixed;shape=mxgraph.aws4.resourceIcon;resIcon=mxgraph.aws4.bedrock;" parent="1" vertex="1">
          <mxGeometry x="2106" y="600" width="78" height="78" as="geometry" />
        </mxCell>
        <mxCell id="glMtyX_r7esRI9YPVUXw-9" value="Machine Learning" style="rounded=0;whiteSpace=wrap;html=1;fillColor=none;strokeColor=none;" parent="1" vertex="1">
          <mxGeometry x="2085" y="678" width="120" height="25" as="geometry" />
        </mxCell>
        <mxCell id="glMtyX_r7esRI9YPVUXw-10" value="" style="shadow=0;dashed=0;html=1;strokeColor=none;fillColor=#4495D1;labelPosition=center;verticalLabelPosition=bottom;verticalAlign=top;align=center;outlineConnect=0;shape=mxgraph.veeam.magnifying_glass;pointerEvents=1;" parent="1" vertex="1">
          <mxGeometry x="2106" y="380" width="72.6" height="70" as="geometry" />
        </mxCell>
        <mxCell id="glMtyX_r7esRI9YPVUXw-11" value="Ad-Hoc SQL Queries" style="rounded=0;whiteSpace=wrap;html=1;fillColor=none;strokeColor=none;fontSize=15;" parent="1" vertex="1">
          <mxGeometry x="2082.3" y="440" width="120" height="60" as="geometry" />
        </mxCell>
        <mxCell id="glMtyX_r7esRI9YPVUXw-12" value="&lt;font style=&quot;font-size: 24px;&quot;&gt;SQL Server&lt;/font&gt;" style="rounded=0;whiteSpace=wrap;html=1;fillColor=none;strokeColor=none;" parent="1" vertex="1">
          <mxGeometry x="1110" y="60" width="160" height="60" as="geometry" />
        </mxCell>
      </root>
    </mxGraphModel>
  </diagram>
</mxfile>
